<svg id="svg" xmlns="http://www.w3.org/2000/svg" xmlns:xlink="http://www.w3.org/1999/xlink" width="400" height="400" viewBox="0, 0, 400,400"><g id="svgg"><path id="path0" d="M197.969 81.149 C 128.787 84.113,97.246 176.133,147.954 227.067 C 197.747 277.081,278.852 238.926,278.889 165.469 C 278.914 117.305,242.388 79.245,197.969 81.149 M191.563 254.715 C 112.697 257.873,49.605 302.862,43.802 360.078 L 43.557 362.500 200.412 362.500 L 357.268 362.500 357.051 359.922 C 352.722 308.635,297.246 264.452,226.719 256.124 C 218.320 255.132,204.159 254.263,199.063 254.426 C 198.289 254.451,194.914 254.581,191.563 254.715 " stroke="none" fill="#acb3b4" fill-rule="evenodd"></path><path id="path1" d="M0.000 200.000 L 0.000 400.000 200.000 400.000 L 400.000 400.000 400.000 200.000 L 400.000 0.000 200.000 0.000 L 0.000 0.000 0.000 200.000 M212.656 81.853 C 277.081 93.166,301.952 178.045,255.002 226.366 C 209.448 273.249,134.003 245.882,123.738 178.750 C 115.199 122.910,161.171 72.812,212.656 81.853 M219.112 255.123 C 295.747 262.599,351.984 305.616,357.342 360.859 L 357.531 362.813 200.453 362.813 L 43.374 362.813 43.585 360.547 C 48.885 303.590,109.301 259.763,189.688 254.559 C 193.967 254.282,214.532 254.676,219.112 255.123 " stroke="none" fill="#e4e4e4" fill-rule="evenodd"></path><path id="path2" d="M197.578 81.161 C 198.051 81.233,198.824 81.233,199.297 81.161 C 199.770 81.090,199.383 81.031,198.438 81.031 C 197.492 81.031,197.105 81.090,197.578 81.161 M202.895 81.162 C 203.370 81.234,204.073 81.232,204.457 81.157 C 204.842 81.083,204.453 81.025,203.594 81.027 C 202.734 81.029,202.420 81.090,202.895 81.162 M253.750 103.281 C 254.333 103.883,254.880 104.375,254.966 104.375 C 255.052 104.375,254.646 103.883,254.063 103.281 C 253.479 102.680,252.932 102.188,252.846 102.188 C 252.760 102.188,253.167 102.680,253.750 103.281 M122.898 161.875 C 122.898 162.648,122.959 162.965,123.033 162.578 C 123.108 162.191,123.108 161.559,123.033 161.172 C 122.959 160.785,122.898 161.102,122.898 161.875 M122.898 169.063 C 122.898 169.836,122.959 170.152,123.033 169.766 C 123.108 169.379,123.108 168.746,123.033 168.359 C 122.959 167.973,122.898 168.289,122.898 169.063 M195.078 254.599 C 195.551 254.670,196.324 254.670,196.797 254.599 C 197.270 254.527,196.883 254.469,195.938 254.469 C 194.992 254.469,194.605 254.527,195.078 254.599 M204.141 254.599 C 204.613 254.670,205.387 254.670,205.859 254.599 C 206.332 254.527,205.945 254.469,205.000 254.469 C 204.055 254.469,203.668 254.527,204.141 254.599 M327.813 301.719 C 328.396 302.320,328.943 302.813,329.029 302.813 C 329.115 302.813,328.708 302.320,328.125 301.719 C 327.542 301.117,326.995 300.625,326.909 300.625 C 326.823 300.625,327.229 301.117,327.813 301.719 M200.313 362.500 L 43.281 362.657 200.216 362.735 C 304.586 362.786,357.215 362.708,357.344 362.500 C 357.450 362.328,357.493 362.222,357.440 362.265 C 357.387 362.308,286.680 362.414,200.313 362.500 " stroke="none" fill="#bcc4c4" fill-rule="evenodd"></path><path id="path3" d="M279.168 165.313 C 279.168 166.602,279.223 167.129,279.290 166.484 C 279.358 165.840,279.358 164.785,279.290 164.141 C 279.223 163.496,279.168 164.023,279.168 165.313 M191.641 254.590 C 191.941 254.669,192.434 254.669,192.734 254.590 C 193.035 254.512,192.789 254.448,192.188 254.448 C 191.586 254.448,191.340 254.512,191.641 254.590 M208.203 254.590 C 208.504 254.669,208.996 254.669,209.297 254.590 C 209.598 254.512,209.352 254.448,208.750 254.448 C 208.148 254.448,207.902 254.512,208.203 254.590 M325.156 299.063 C 325.828 299.750,326.447 300.313,326.533 300.313 C 326.619 300.313,326.140 299.750,325.469 299.063 C 324.797 298.375,324.178 297.813,324.092 297.813 C 324.006 297.813,324.485 298.375,325.156 299.063 M69.512 305.078 L 68.594 306.094 69.609 305.176 C 70.556 304.320,70.769 304.063,70.527 304.063 C 70.473 304.063,70.016 304.520,69.512 305.078 " stroke="none" fill="#c7cccc" fill-rule="evenodd"></path><path id="path4" d="" stroke="none" fill="#c4c4c8" fill-rule="evenodd"></path></g></svg>